 <svg  version="1.0" xmlns="http://www.w3.org/2000/svg"  width="67.000000pt" height="67.000000pt" viewBox="0 0 67.000000 67.000000"  preserveAspectRatio="xMidYMid meet">  <g transform="translate(0.000000,67.000000) scale(0.100000,-0.100000)" fill="#2e8754" stroke="none"> <path d="M10 558 l0 -102 62 -63 62 -63 -62 -63 -62 -63 0 -102 0 -102 102 0 102 0 63 62 63 62 63 -62 63 -62 102 0 102 0 0 102 0 102 -62 63 -62 63 62 63 62 63 0 102 0 102 -102 0 -102 0 -63 -62 -63 -62 -63 62 -63 62 -102 0 -102 0 0 -102z m320 -31 c0 -1 -43 -45 -95 -97 l-95 -95 0 98 0 97 95 0 c52 0 95 -1 95 -3z m210 -92 c0 -52 -1 -95 -3 -95 -1 0 -45 43 -97 95 l-95 95 98 0 97 0 0 -95z m-300 -210 l95 -95 -98 0 -97 0 0 95 c0 52 1 95 3 95 1 0 45 -43 97 -95z m300 0 l0 -95 -97 0 -98 0 95 95 c52 52 96 95 97 95 2 0 3 -43 3 -95z"/> </g> </svg> 